<?xml version="1.0" encoding="UTF-8"?>
<svg id="Capa_2" data-name="Capa 2" xmlns="http://www.w3.org/2000/svg" viewBox="0 0 459.41 450.09">
  <defs>
    <style>
      .cls-1, .cls-2, .cls-3, .cls-4 {
        fill: none;
        stroke-miterlimit: 10;
      }

      .cls-1, .cls-2, .cls-4 {
        stroke-linecap: round;
      }

      .cls-1, .cls-3 {
        stroke-width: 6.28px;
      }

      .cls-1, .cls-3, .cls-4 {
        stroke: #e04486;
      }

      .cls-2 {
        stroke: #000;
      }

      .cls-2, .cls-4 {
        stroke-width: 13.3px;
      }

      .cls-5 {
        fill: #e04486;
      }
    </style>
  </defs>
  <g id="Capa_1-2" data-name="Capa 1">
    <g>
      <path class="cls-5" d="M331.2,166.28s-22.19,34.34-30.66,64.43c-3.96,14.1-10.48,28.14-19.32,50.9l7.08-1.29c8.84-22.76,15.43-35.51,19.4-49.61,8.46-30.09,27.32-60.41,27.32-60.41l-3.82-4.02"/>
      <path class="cls-5" d="M328.48,163.41l3.17,4.1c-22.32,29.56-64.57,116.38-64.57,116.38l-7.69,1.02s46.78-91.93,69.09-121.49"/>
      <polyline class="cls-5" points="327.95 164.67 243.97 286.77 236.74 287.45 323.61 161.21 327.95 164.67"/>
      <path class="cls-5" d="M320.88,159.35c-3.93,11.3-120.73,130.22-120.73,130.22l7.5-.29s115.94-116.84,119.88-128.14l-6.65-1.79"/>
      <path class="cls-5" d="M316.4,155.68l6.21,4.12s-10.49,18.56-61.72,59.29c-51.23,40.73-86.99,70.87-86.99,70.87l-9.79-.08s39.33-34.18,90.57-74.91c51.23-40.73,61.72-59.29,61.72-59.29"/>
      <path class="cls-5" d="M314.63,155.31l6.09,4.04s-27.26,27.17-80.14,57.83c-52.88,30.66-91.24,72.2-91.24,72.2l-10.61-.56s44.12-45.83,97-76.49c52.88-30.66,78.89-57.02,78.89-57.02"/>
      <g>
        <path class="cls-2" d="M367.72,265.37c.04-.42.13-.83.13-1.25,0-.2-.05-.39-.06-.58-.02.61-.05,1.22-.07,1.83Z"/>
        <path class="cls-2" d="M6.65,264.12c0,.42.08.84.13,1.25-.02-.61-.05-1.22-.07-1.83,0,.19-.06.39-.06.58Z"/>
        <path class="cls-4" d="M6.71,263.54c1.25-24.75,81.58-44.71,180.54-44.71s179.29,19.97,180.54,44.71"/>
        <path class="cls-4" d="M187.25,309.41c-98.07,0-177.82-19.61-180.47-44.04,3.39,98.93,82.88,178.07,180.47,178.07s177.08-79.14,180.47-178.07c-2.65,24.43-82.4,44.04-180.47,44.04Z"/>
      </g>
      <path class="cls-1" d="M367.99,3.78h25.75c2.57,0,4.66,2.09,4.66,4.66v172.89c0,.96-.78,1.74-1.74,1.74h-31.6c-.96,0-1.74-.78-1.74-1.74V8.44c0-2.57,2.09-4.66,4.66-4.66Z" transform="translate(140.96 -216.79) rotate(38.5)"/>
      <path class="cls-1" d="M436.51,6.17h13.41c2.49,0,4.52,2.02,4.52,4.52v15.07h-22.45v-15.07c0-2.49,2.02-4.52,4.52-4.52Z" transform="translate(106.29 -272.44) rotate(38.5)"/>
      <rect class="cls-5" x="372.49" y="2.97" width="14.73" height="179.29" transform="translate(140.24 -216.33) rotate(38.5)"/>
      <path class="cls-3" d="M285.91,302.46c-4.54,11.52-8.62,21.65-11.32,28.3-2.54,6.27-5.73,12.25-9.54,17.84-56.06,82.3-116.34,42.02-116.34,42.02,0,0,49.1,21.08,110.65-85.45"/>
      <path class="cls-3" d="M234.83,307.96c-54.45,79.2-86.12,82.67-86.12,82.67,0,0-17.49-11.35,36.84-81.23"/>
      <path class="cls-3" d="M159.75,308.8c-42.39,66.65-11.04,81.82-11.04,81.82,0,0-39.39-21.55-16.19-83.51"/>
    </g>
  </g>
</svg>